<svg width="48" height="48" viewBox="0 0 48 48" xmlns="http://www.w3.org/2000/svg" fill="none">
  <g opacity="0.15">
    <rect x="23" y="23" width="1" height="1" fill="#fafafa"/>
    <rect x="21" y="25" width="1" height="1" fill="#fafafa"/>
    <rect x="19" y="27" width="1" height="1" fill="#fafafa"/>
    <rect x="17" y="29" width="1" height="1" fill="#fafafa"/>
    <rect x="15" y="31" width="1" height="1" fill="#fafafa"/>
    <rect x="13" y="33" width="1" height="1" fill="#fafafa"/>
    <rect x="11" y="35" width="1" height="1" fill="#fafafa"/>
    <rect x="9" y="37" width="1" height="1" fill="#fafafa"/>
    <rect x="7" y="39" width="1" height="1" fill="#fafafa"/>
    <rect x="5" y="41" width="1" height="1" fill="#fafafa"/>
    <rect x="3" y="43" width="1" height="1" fill="#fafafa"/>
    <rect x="1" y="45" width="1" height="1" fill="#fafafa"/>
    <rect x="25" y="21" width="1" height="1" fill="#fafafa"/>
    <rect x="27" y="19" width="1" height="1" fill="#fafafa"/>
    <rect x="29" y="17" width="1" height="1" fill="#fafafa"/>
    <rect x="31" y="15" width="1" height="1" fill="#fafafa"/>
    <rect x="33" y="13" width="1" height="1" fill="#fafafa"/>
    <rect x="35" y="11" width="1" height="1" fill="#fafafa"/>
    <rect x="37" y="9" width="1" height="1" fill="#fafafa"/>
    <rect x="39" y="7" width="1" height="1" fill="#fafafa"/>
    <rect x="41" y="5" width="1" height="1" fill="#fafafa"/>
    <rect x="43" y="3" width="1" height="1" fill="#fafafa"/>
    <rect x="45" y="1" width="1" height="1" fill="#fafafa"/>
    <rect x="47" y="47" width="1" height="1" fill="#fafafa"/>
    <rect x="13" y="9" width="1" height="1" fill="#fafafa"/>
    <rect x="13" y="21" width="1" height="1" fill="#fafafa"/>
    <rect x="25" y="33" width="1" height="1" fill="#fafafa"/>
    <rect x="5" y="5" width="1" height="1" fill="#fafafa"/>
    <rect x="41" y="41" width="1" height="1" fill="#fafafa"/>
    <rect x="37" y="33" width="1" height="1" fill="#fafafa"/>
    <rect x="11" y="11" width="1" height="1" fill="#fafafa"/>
    <rect x="11" y="23" width="1" height="1" fill="#fafafa"/>
    <rect x="23" y="35" width="1" height="1" fill="#fafafa"/>
    <rect x="3" y="7" width="1" height="1" fill="#fafafa"/>
    <rect x="39" y="43" width="1" height="1" fill="#fafafa"/>
    <rect x="35" y="35" width="1" height="1" fill="#fafafa"/>
    <rect x="9" y="13" width="1" height="1" fill="#fafafa"/>
    <rect x="9" y="25" width="1" height="1" fill="#fafafa"/>
    <rect x="21" y="37" width="1" height="1" fill="#fafafa"/>
    <rect x="1" y="9" width="1" height="1" fill="#fafafa"/>
    <rect x="37" y="45" width="1" height="1" fill="#fafafa"/>
    <rect x="33" y="37" width="1" height="1" fill="#fafafa"/>
    <rect x="7" y="15" width="1" height="1" fill="#fafafa"/>
    <rect x="7" y="27" width="1" height="1" fill="#fafafa"/>
    <rect x="19" y="39" width="1" height="1" fill="#fafafa"/>
    <rect x="31" y="39" width="1" height="1" fill="#fafafa"/>
    <rect x="5" y="17" width="1" height="1" fill="#fafafa"/>
    <rect x="5" y="29" width="1" height="1" fill="#fafafa"/>
    <rect x="17" y="41" width="1" height="1" fill="#fafafa"/>
    <rect x="29" y="41" width="1" height="1" fill="#fafafa"/>
    <rect x="3" y="19" width="1" height="1" fill="#fafafa"/>
    <rect x="3" y="31" width="1" height="1" fill="#fafafa"/>
    <rect x="15" y="43" width="1" height="1" fill="#fafafa"/>
    <rect x="27" y="43" width="1" height="1" fill="#fafafa"/>
    <rect x="1" y="21" width="1" height="1" fill="#fafafa"/>
    <rect x="1" y="33" width="1" height="1" fill="#fafafa"/>
    <rect x="13" y="45" width="1" height="1" fill="#fafafa"/>
    <rect x="25" y="45" width="1" height="1" fill="#fafafa"/>
    <rect x="15" y="7" width="1" height="1" fill="#fafafa"/>
    <rect x="15" y="19" width="1" height="1" fill="#fafafa"/>
    <rect x="27" y="31" width="1" height="1" fill="#fafafa"/>
    <rect x="7" y="3" width="1" height="1" fill="#fafafa"/>
    <rect x="43" y="39" width="1" height="1" fill="#fafafa"/>
    <rect x="39" y="31" width="1" height="1" fill="#fafafa"/>
    <rect x="17" y="5" width="1" height="1" fill="#fafafa"/>
    <rect x="17" y="17" width="1" height="1" fill="#fafafa"/>
    <rect x="29" y="29" width="1" height="1" fill="#fafafa"/>
    <rect x="9" y="1" width="1" height="1" fill="#fafafa"/>
    <rect x="45" y="37" width="1" height="1" fill="#fafafa"/>
    <rect x="41" y="29" width="1" height="1" fill="#fafafa"/>
    <rect x="19" y="3" width="1" height="1" fill="#fafafa"/>
    <rect x="19" y="15" width="1" height="1" fill="#fafafa"/>
    <rect x="31" y="27" width="1" height="1" fill="#fafafa"/>
    <rect x="11" y="47" width="1" height="1" fill="#fafafa"/>
    <rect x="47" y="35" width="1" height="1" fill="#fafafa"/>
    <rect x="43" y="27" width="1" height="1" fill="#fafafa"/>
    <rect x="21" y="1" width="1" height="1" fill="#fafafa"/>
    <rect x="21" y="13" width="1" height="1" fill="#fafafa"/>
    <rect x="33" y="25" width="1" height="1" fill="#fafafa"/>
    <rect x="23" y="47" width="1" height="1" fill="#fafafa"/>
    <rect x="23" y="11" width="1" height="1" fill="#fafafa"/>
    <rect x="35" y="23" width="1" height="1" fill="#fafafa"/>
    <rect x="25" y="9" width="1" height="1" fill="#fafafa"/>
    <rect x="37" y="21" width="1" height="1" fill="#fafafa"/>
    <rect x="27" y="7" width="1" height="1" fill="#fafafa"/>
    <rect x="39" y="19" width="1" height="1" fill="#fafafa"/>
    <rect x="29" y="5" width="1" height="1" fill="#fafafa"/>
    <rect x="41" y="17" width="1" height="1" fill="#fafafa"/>
    <rect x="31" y="3" width="1" height="1" fill="#fafafa"/>
    <rect x="43" y="15" width="1" height="1" fill="#fafafa"/>
    <rect x="33" y="1" width="1" height="1" fill="#fafafa"/>
    <rect x="45" y="13" width="1" height="1" fill="#fafafa"/>
    <rect x="35" y="47" width="1" height="1" fill="#fafafa"/>
    <rect x="47" y="11" width="1" height="1" fill="#fafafa"/>
    <rect x="45" y="25" width="1" height="1" fill="#fafafa"/>
    <rect x="47" y="23" width="1" height="1" fill="#fafafa"/>
  </g>
</svg>
