<svg width="48" height="48" viewBox="0 0 48 48" xmlns="http://www.w3.org/2000/svg" fill="none">
  <g opacity="0.15">
    <path fill-rule="evenodd" clip-rule="evenodd" d="M48 43V46H47V43H48Z" fill="#fafafa"/>
    <path fill-rule="evenodd" clip-rule="evenodd" d="M48 37V40H47V37H48Z" fill="#fafafa"/>
    <path fill-rule="evenodd" clip-rule="evenodd" d="M48 31V34H47V31H48Z" fill="#fafafa"/>
    <path fill-rule="evenodd" clip-rule="evenodd" d="M48 25V28H47V25H48Z" fill="#fafafa"/>
    <path fill-rule="evenodd" clip-rule="evenodd" d="M48 19V22H47V19H48Z" fill="#fafafa"/>
    <path fill-rule="evenodd" clip-rule="evenodd" d="M48 13V16H47V13H48Z" fill="#fafafa"/>
    <path fill-rule="evenodd" clip-rule="evenodd" d="M48 7V10H47V7H48Z" fill="#fafafa"/>
    <path fill-rule="evenodd" clip-rule="evenodd" d="M48 1V4H47V1H48Z" fill="#fafafa"/>
    <path fill-rule="evenodd" clip-rule="evenodd" d="M36 43V46H35V43H36Z" fill="#fafafa"/>
    <path fill-rule="evenodd" clip-rule="evenodd" d="M36 37V40H35V37H36Z" fill="#fafafa"/>
    <path fill-rule="evenodd" clip-rule="evenodd" d="M36 31V34H35V31H36Z" fill="#fafafa"/>
    <path fill-rule="evenodd" clip-rule="evenodd" d="M36 25V28H35V25H36Z" fill="#fafafa"/>
    <path fill-rule="evenodd" clip-rule="evenodd" d="M36 19V22H35V19H36Z" fill="#fafafa"/>
    <path fill-rule="evenodd" clip-rule="evenodd" d="M36 13V16H35V13H36Z" fill="#fafafa"/>
    <path fill-rule="evenodd" clip-rule="evenodd" d="M36 7V10H35V7H36Z" fill="#fafafa"/>
    <path fill-rule="evenodd" clip-rule="evenodd" d="M36 1V4H35V1H36Z" fill="#fafafa"/>
    <path fill-rule="evenodd" clip-rule="evenodd" d="M24 43V46H23V43H24Z" fill="#fafafa"/>
    <path fill-rule="evenodd" clip-rule="evenodd" d="M24 37V40H23V37H24Z" fill="#fafafa"/>
    <path fill-rule="evenodd" clip-rule="evenodd" d="M24 31V34H23V31H24Z" fill="#fafafa"/>
    <path fill-rule="evenodd" clip-rule="evenodd" d="M24 25V28H23V25H24Z" fill="#fafafa"/>
    <path fill-rule="evenodd" clip-rule="evenodd" d="M24 19V22H23V19H24Z" fill="#fafafa"/>
    <path fill-rule="evenodd" clip-rule="evenodd" d="M24 13V16H23V13H24Z" fill="#fafafa"/>
    <path fill-rule="evenodd" clip-rule="evenodd" d="M24 7V10H23V7H24Z" fill="#fafafa"/>
    <path fill-rule="evenodd" clip-rule="evenodd" d="M24 1V4H23V1H24Z" fill="#fafafa"/>
    <path fill-rule="evenodd" clip-rule="evenodd" d="M12 43V46H11V43H12Z" fill="#fafafa"/>
    <path fill-rule="evenodd" clip-rule="evenodd" d="M12 37V40H11V37H12Z" fill="#fafafa"/>
    <path fill-rule="evenodd" clip-rule="evenodd" d="M12 31V34H11V31H12Z" fill="#fafafa"/>
    <path fill-rule="evenodd" clip-rule="evenodd" d="M12 25V28H11V25H12Z" fill="#fafafa"/>
    <path fill-rule="evenodd" clip-rule="evenodd" d="M12 19V22H11V19H12Z" fill="#fafafa"/>
    <path fill-rule="evenodd" clip-rule="evenodd" d="M12 13V16H11V13H12Z" fill="#fafafa"/>
    <path fill-rule="evenodd" clip-rule="evenodd" d="M12 7V10H11V7H12Z" fill="#fafafa"/>
    <path fill-rule="evenodd" clip-rule="evenodd" d="M12 1V4H11V1H12Z" fill="#fafafa"/>
  </g>
</svg>
